<?xml version="1.0" standalone="no"?>
<!DOCTYPE svg PUBLIC "-//W3C//DTD SVG 20010904//EN"
 "http://www.w3.org/TR/2001/REC-SVG-20010904/DTD/svg10.dtd">
<svg version="1.0" xmlns="http://www.w3.org/2000/svg"
 width="512.000000pt" height="512.000000pt" viewBox="0 0 512.000000 512.000000"
 preserveAspectRatio="xMidYMid meet">

<g transform="translate(0.000000,512.000000) scale(0.100000,-0.100000)"
fill="#000000" stroke="none">
<path d="M1755 4543 c-8 -635 -8 -589 0 -1100 l7 -413 29 0 29 0 0 -170 0
-170 83 0 84 0 -6 -35 c-6 -32 -24 -47 -331 -252 -179 -120 -399 -273 -488
-340 l-162 -122 0 370 0 369 -110 0 -110 0 0 -560 0 -560 -65 0 -65 0 0 -775
0 -775 1515 0 1515 0 0 125 0 125 405 0 405 0 0 650 0 650 -25 0 c-22 0 -25
-4 -26 -37 0 -27 -6 -13 -19 51 -43 204 -102 341 -174 402 -78 67 -361 190
-704 308 -110 38 -170 63 -183 78 -10 13 -18 25 -19 28 0 3 20 13 45 23 56 24
151 123 200 212 l37 65 109 0 109 0 0 35 0 35 -91 0 c-82 0 -91 2 -86 18 3 9
23 69 45 132 l39 115 127 3 126 3 0 594 c0 380 -4 595 -10 595 -6 0 -6 9 0 26
15 38 12 140 -4 179 -13 31 -13 35 0 35 11 0 14 23 14 125 l0 125 -160 0 -160
0 0 180 0 180 -959 0 -959 0 -7 -527z m2140 -163 c29 -57 12 -127 -28 -114
-31 9 -31 10 -13 36 9 12 16 42 16 65 0 24 2 43 5 43 2 0 11 -13 20 -30z
m-347 -254 c58 -24 69 -26 156 -20 l93 7 12 -114 c7 -63 15 -199 18 -304 5
-165 3 -206 -16 -313 -25 -147 -68 -323 -111 -452 -40 -119 -126 -303 -139
-296 -10 7 -24 -22 -16 -34 3 -5 0 -12 -6 -16 -8 -4 -9 -3 -5 4 4 7 5 12 2 12
-3 0 -10 -10 -17 -21 -9 -17 -8 -20 3 -13 11 6 11 5 -1 -9 -7 -9 -17 -15 -21
-12 -4 3 -14 -2 -21 -11 -7 -9 -35 -27 -62 -41 -162 -82 -400 35 -599 293
-109 141 -240 389 -312 589 -20 55 -43 112 -51 128 -13 25 -13 27 5 27 17 0
20 7 20 48 0 26 11 92 25 147 14 55 25 111 25 125 1 67 60 141 147 183 40 19
47 20 143 7 145 -19 186 -11 410 85 80 34 90 36 170 32 62 -3 102 -12 148 -31z
m-1444 -404 c3 -5 -4 -33 -15 -63 -18 -46 -21 -69 -16 -161 2 -60 3 -108 2
-108 -8 0 -45 131 -53 184 -10 65 -2 108 24 137 18 20 49 25 58 11z m17 -833
c3 -154 1 -195 -8 -192 -10 4 -13 55 -13 212 1 261 17 246 21 -20z m1369 -373
c0 -2 -8 -10 -17 -17 -16 -13 -17 -12 -4 4 13 16 21 21 21 13z m-1139 -433
c57 -75 109 -142 115 -150 9 -10 56 -13 211 -13 190 0 201 -1 206 -19 3 -11
-1 -28 -8 -38 -7 -10 -48 -84 -92 -166 l-80 -147 -86 87 c-47 49 -120 131
-162 183 -66 82 -73 95 -55 98 11 2 20 5 20 7 0 3 -28 48 -63 102 -76 118
-121 193 -114 193 2 0 51 -61 108 -137z m1101 -161 c17 -3 17 -14 1 -112 l-5
-35 -33 70 c-19 43 -28 73 -22 77 7 4 4 16 -6 32 -53 81 -53 83 -14 47 l37
-35 1 80 2 79 11 -100 c9 -80 14 -100 28 -103z m-1164 74 c120 -178 375 -476
408 -476 7 0 28 28 45 63 47 95 143 267 149 267 3 0 33 -55 68 -123 l62 -122
0 -138 0 -137 -664 0 -665 0 -37 63 c-109 182 -243 306 -429 400 -85 42 -187
77 -228 77 -30 0 -30 0 -11 22 45 50 166 138 192 138 15 1 45 14 67 30 l40 29
470 0 470 0 63 -93z m1682 64 c41 -17 91 -30 114 -30 30 0 57 -10 98 -35 109
-69 167 -206 218 -515 24 -152 24 -150 1 -150 -13 0 -18 -6 -16 -17 2 -10 6
-51 9 -90 l5 -73 -164 0 -164 0 -118 44 c-65 24 -183 64 -261 90 -123 39 -156
46 -226 46 l-83 0 -41 143 c-35 120 -40 149 -32 178 6 19 18 84 28 143 l18
108 43 -92 c24 -51 47 -88 51 -84 16 17 30 129 30 246 l0 118 209 0 208 0 73
-30z m-714 -135 c15 -38 17 -99 4 -130 -6 -15 -9 -5 -10 35 0 30 -4 72 -9 93
-11 46 -4 48 15 2z m-2146 -101 c74 -26 180 -82 180 -94 0 -4 -7 -13 -15 -20
-12 -10 -5 -18 45 -52 157 -104 277 -297 355 -568 49 -173 50 -199 2 -65 -73
204 -167 376 -272 501 -44 51 -144 134 -162 134 -5 0 -135 -153 -289 -339
-153 -187 -279 -339 -280 -338 -1 1 2 43 7 92 23 237 107 507 221 713 l40 74
52 -7 c28 -4 80 -18 116 -31z m2186 -457 c7 -38 14 -74 13 -80 -1 -14 -58 203
-58 218 1 20 31 -72 45 -138z m21 -119 c-3 -8 -6 -5 -6 6 -1 11 2 17 5 13 3
-3 4 -12 1 -19z m-1590 -370 c-3 -8 -6 -5 -6 6 -1 11 2 17 5 13 3 -3 4 -12 1
-19z"/>
</g>
</svg>
