<?xml version="1.0" ?><svg viewBox="0 0 93 97.06" xmlns="http://www.w3.org/2000/svg"><title/><g data-name="Layer 2" id="Layer_2"><g id="ICONS"><path d="M45,50.52V63H32.5a1.5,1.5,0,0,0,0,3H45v12.5a1.5,1.5,0,0,0,3,0V66H60.5a1.5,1.5,0,0,0,0-3H48V50.52a1.5,1.5,0,0,0-3,0Z"/><path d="M92.56,45.42l-45-45a1.54,1.54,0,0,0-2.12,0l-45,45a1.5,1.5,0,0,0,0,2.12l8.12,8.12a1.54,1.54,0,0,0,2.12,0l2.16-2.16V95.56a1.5,1.5,0,0,0,1.5,1.5H78.66a1.5,1.5,0,0,0,1.5-1.5V53.5l2.16,2.16a1.5,1.5,0,0,0,2.12,0l8.12-8.12A1.5,1.5,0,0,0,92.56,45.42Zm-15.41,5.2V94.06H15.84V50.63s0-.08,0-.11L46.5,19.84,77.17,50.51S77.16,50.59,77.16,50.63Zm6.23,1.86L47.56,16.66a1.54,1.54,0,0,0-2.12,0L9.62,52.48l-6-6L46.5,3.6,89.38,46.48Z"/></g></g></svg>